<svg xmlns="http://www.w3.org/2000/svg" width="32" height="32" viewBox="0 0 32 32" fill="none"><path d="M24.3695 5.34793H7.63037V25.1305H24.3695V5.34793Z" fill="#AA572A"/><path fill-rule="evenodd" clip-rule="evenodd" d="M2.30432 4.20652C2.30432 3.5762 2.8153 3.06522 3.44563 3.06522H6.4891C7.11943 3.06522 7.63041 3.5762 7.63041 4.20652V13.7174H24.3695V4.20652C24.3695 3.5762 24.8805 3.06522 25.5108 3.06522H28.5543C29.1846 3.06522 29.6956 3.5762 29.6956 4.20652V27.7935C29.6956 28.4238 29.1846 28.9348 28.5543 28.9348H3.44563C2.8153 28.9348 2.30432 28.4238 2.30432 27.7935V4.20652ZM7.63041 25.1304H24.3695V18.2826H7.63041V25.1304Z" fill="#FFC800"/><path d="M29.6956 21.272L21.4582 28.9347H3.94922L8.03889 25.1303H24.3695V18.2825H15.4003L20.3079 13.7173H24.3695V9.93906L29.6956 4.98456V21.272Z" fill="#FBE56D"/><path d="M7.63041 13.6571L2.30432 18.6116V9.74808L7.63041 4.79358V13.6571Z" fill="#FBE56D"/><path d="M13.1436 10.502H19.1248C20.0687 10.502 20.8338 11.2931 20.8338 12.2691V19.3379C20.8338 20.3138 20.0687 21.105 19.1248 21.105H13.1436C12.1998 21.105 11.4347 20.3138 11.4347 19.3379V12.2691C11.4347 11.2931 12.1998 10.502 13.1436 10.502Z" fill="#FFC800"/><path d="M18.2179 14.4779C18.2179 13.2579 17.2615 12.2689 16.0817 12.2689C14.9019 12.2689 13.9456 13.2579 13.9456 14.4779C13.9456 15.1985 14.2792 15.8385 14.7955 16.2417L14.2541 18.2127C14.2325 18.2912 14.2216 18.3725 14.2216 18.4541C14.2216 18.9421 14.6041 19.3377 15.0761 19.3377H17.0864C17.1654 19.3377 17.2439 19.3264 17.3199 19.3041C17.7738 19.1708 18.0373 18.6821 17.9084 18.2127L17.3671 16.2423C17.8839 15.8392 18.2179 15.1989 18.2179 14.4779Z" fill="#CD7900"/><style xmlns="" class="darkreader darkreader--fallback">html, body, body :not(iframe) {
    background-color: #181a1b !important;
    border-color: #776e62 !important;
    color: #e8e6e3 !important;
}
div[style*="background-color: rgb(135, 135, 135)"] {
    background-color: #878787 !important;
}</style></svg>