<svg xmlns="http://www.w3.org/2000/svg" width="41" height="42" viewBox="0 0 41 42" fill="none"><path d="M8.31177 18.4663H31.876V38.4086C31.876 39.844 30.4566 40.8481 29.1031 40.3701L20.0939 37.1888L11.0847 40.3701C9.73119 40.8481 8.31177 39.844 8.31177 38.4086V18.4663Z" fill="#FFC800"/><circle cx="20.0943" cy="20.0941" r="14.4004" transform="rotate(35.6401 20.0943 20.0941)" fill="#FFD900"/><path d="M11.7032 31.7972C18.1667 36.4314 27.1631 34.9486 31.7973 28.4851L8.39111 11.7031C3.75689 18.1666 5.23977 27.163 11.7032 31.7972Z" fill="#FEEA66"/><path d="M18.945 24.776C18.945 25.604 19.467 26.108 20.205 26.108C20.925 26.108 21.465 25.604 21.465 24.776V15.182C21.465 14.264 20.925 13.652 20.061 13.652C19.485 13.652 18.999 13.886 18.531 14.21L16.605 15.542C16.173 15.83 15.975 16.226 15.975 16.604C15.975 17.216 16.443 17.666 17.019 17.666C17.271 17.666 17.541 17.594 17.775 17.432L18.909 16.658H18.945V24.776Z" fill="#FF9600"/><circle cx="20.0943" cy="20.0941" r="12.9004" transform="rotate(35.6401 20.0943 20.0941)" stroke="#FFC800" stroke-width="3"/></svg>