<svg xmlns="http://www.w3.org/2000/svg" width="41" height="42" viewBox="0 0 41 42" fill="none"><path d="M8.31152 19.4663H31.8758V38.4086C31.8758 39.844 30.4564 40.8481 29.1029 40.3701L20.0937 37.1888L11.0845 40.3701C9.73095 40.8481 8.31152 39.844 8.31152 38.4086V19.4663Z" fill="#D7975D"/><circle cx="20.0941" cy="20.0941" r="14.4004" transform="rotate(35.6401 20.0941 20.0941)" fill="#E5AE7C"/><path d="M11.703 31.7972C18.1664 36.4314 27.1628 34.9486 31.7971 28.4851L8.39087 11.7031C3.75665 18.1666 5.23953 27.163 11.703 31.7972Z" fill="#F7BE8B"/><path d="M16.4038 24.326C16.9258 25.514 18.2218 26.198 19.9858 26.198C22.2898 26.198 23.9818 24.686 23.9818 22.454C23.9818 20.852 23.1358 19.862 22.3798 19.502V19.466C23.2618 18.89 23.7478 17.99 23.7478 16.946C23.7478 14.984 22.3618 13.562 19.9678 13.562C18.2038 13.562 16.9798 14.372 16.5298 15.398C16.4398 15.614 16.3858 15.83 16.3858 16.028C16.3858 16.676 16.8538 17.144 17.5018 17.144C17.9518 17.144 18.3838 16.892 18.6178 16.424C18.7978 16.046 19.1398 15.686 19.8598 15.686C20.6878 15.686 21.2278 16.262 21.2278 17.126C21.2278 18.062 20.6518 18.638 19.8418 18.638H19.7158C19.0678 18.638 18.6178 19.07 18.6178 19.7C18.6178 20.33 19.0678 20.762 19.7158 20.762H19.8418C20.7238 20.762 21.4618 21.41 21.4618 22.472C21.4618 23.408 20.8858 24.074 19.9498 24.074C19.3198 24.074 18.8518 23.786 18.5638 23.318C18.2758 22.85 17.8618 22.598 17.4118 22.598C16.7098 22.598 16.2778 23.084 16.2778 23.714C16.2778 23.912 16.3138 24.128 16.4038 24.326Z" fill="#CD7900"/><circle cx="20.0941" cy="20.0941" r="12.9004" transform="rotate(35.6401 20.0941 20.0941)" stroke="#D7975D" stroke-width="3"/></svg>