<svg xmlns="http://www.w3.org/2000/svg" width="41" height="42" viewBox="0 0 41 42" fill="none"><path d="M8.31201 18.4663H31.8763V38.4086C31.8763 39.844 30.4569 40.8481 29.1033 40.3701L20.0941 37.1888L11.085 40.3701C9.73144 40.8481 8.31201 39.844 8.31201 38.4086V18.4663Z" fill="#AAC1D4"/><circle cx="20.0943" cy="20.0941" r="14.4004" transform="rotate(35.6401 20.0943 20.0941)" fill="#C2D1DD"/><path d="M11.7032 31.7972C18.1667 36.4314 27.1631 34.9486 31.7973 28.4851L8.39111 11.7031C3.75689 18.1666 5.23977 27.163 11.7032 31.7972Z" fill="#D6E4EF"/><path d="M16.0073 24.92C16.0073 25.55 16.4573 26 17.1773 26H22.7933C23.5313 26 23.9453 25.568 23.9453 24.938C23.9453 24.29 23.5313 23.858 22.7933 23.858H19.3553V23.822L22.5773 20.024C23.3333 19.124 23.8193 18.224 23.8193 17.054C23.8193 15.074 22.3793 13.562 20.0573 13.562C17.8793 13.562 16.5113 14.786 16.2413 16.1C16.2233 16.208 16.2053 16.316 16.2053 16.406C16.2053 17.072 16.6913 17.522 17.3393 17.522C17.8433 17.522 18.2213 17.234 18.4733 16.712C18.7973 16.046 19.2473 15.686 19.9493 15.686C20.8133 15.686 21.2993 16.28 21.2993 17.09C21.2993 17.72 21.0473 18.224 20.5793 18.782L16.7633 23.354C16.2053 24.02 16.0073 24.398 16.0073 24.92Z" fill="#849FB5"/><circle cx="20.0946" cy="20.0941" r="12.9004" transform="rotate(35.6401 20.0946 20.0941)" stroke="#AAC1D4" stroke-width="3"/></svg>