<svg xmlns="http://www.w3.org/2000/svg" xmlns:xlink="http://www.w3.org/1999/xlink" viewBox="0 0 124 124" version="1.1"><title>double_or_nothing</title><defs><rect id="a" x="0" y="0" width="70" height="64" rx="4"/></defs><g stroke="none" stroke-width="1" fill="none" fill-rule="evenodd"><g transform="translate(21 8)"><rect fill="#FF9600" x="0" y="25.784" width="82" height="78" rx="7"/><path d="M64.916 13.095L75.5 45.271H20.75l37.691-33.9a4 4 0 0 1 6.475 1.724z" fill="#FF9600"/><path d="M23.836 1.984L9 27.382h38c-5.187-5.28-8.645-9.402-10.375-12.364-1.264-2.163-3.139-6.334-5.625-12.51a4 4 0 0 0-7.164-.524zM66.125 17.221c1.688 5 5 8.563 7.375 8.563 1.583 0 1.375 1.583-.625 4.75l-11.063-4.75c1.75-9.042 3.188-11.896 4.313-8.563z" fill="#FF9600"/><path d="M37.25 16.034c3.5 6.125 10 5.625 15.375.75 3.583-3.25 4.875-1.084 3.875 6.5L43.625 33.409l-12.75-11.625c1.916-7.917 4.04-9.834 6.375-5.75z" fill="#FF9600"/><path d="M32.625 23.659c3 6.625 11.625 8.25 16.875 3.125 3.5-3.417 4.583-2.375 3.25 3.125L39 42.034 27.375 29.909c1.5-8.583 3.25-10.667 5.25-6.25z" fill="#FFC800"/><path d="M23.836 18.768L9 44.166h38c-5.187-5.28-8.645-9.402-10.375-12.364-1.264-2.163-3.139-6.334-5.625-12.51a4 4 0 0 0-7.164-.524z" fill="#FFC800"/><path d="M62.916 22.095L73.5 54.271H18.75l37.691-33.9a4 4 0 0 1 6.475 1.724z" fill="#FFC800"/><path d="M15.375 16.471c-3 5.188-6.563 8.79-9.078 9.305-1.677.344-1.484 1.909.578 4.695 9.542-4.291 13.646-6.437 12.313-6.437-2 0-.813-12.75-3.813-7.563z" fill="#FF9600"/><g transform="translate(6 33.784)"><mask id="b" fill="#fff"><use xlink:href="#a"/></mask><use fill="#FFF" xlink:href="#a"/><path fill="#F34848" mask="url(#b)" d="M-6-3h81v21H-6z"/></g><circle fill="#C22E2E" cx="24" cy="41.784" r="5"/><circle fill="#C22E2E" cx="59" cy="41.784" r="5"/><g fill="#F34848"><path d="M34.5 60.784h13a3.5 3.5 0 0 1 0 7h-13a3.5 3.5 0 0 1 0-7z"/><path d="M34.532 82.636l9.644-19.773a3.5 3.5 0 0 1 6.292 3.069l-9.644 19.773a3.5 3.5 0 0 1-6.292-3.069z"/></g><rect fill="#FFF" x="20" y="26.784" width="8" height="18" rx="4"/><rect fill="#FFF" x="55" y="26.784" width="8" height="18" rx="4"/><path d="M46.313 97.815c7.75 0 14.149-15.031 18.525-15.031 4.376 0 2.224 15.031 6.475 15.031 2.833 0 2.925.99.273 2.969h-22.75c-6.849-1.98-7.69-2.969-2.523-2.969z" fill="#FF9600"/><path d="M39.187 97.8c-7.75 0-11.311-8.766-15.687-8.766-4.376 0-5.076 8.766-9.327 8.766-2.834 0-2.896.994-.186 2.984h22.749c6.8-1.99 7.618-2.984 2.451-2.984z" fill="#FF9600"/></g></g><style xmlns="" class="darkreader darkreader--fallback">html, body, body :not(iframe) {
    background-color: #181a1b !important;
    border-color: #776e62 !important;
    color: #e8e6e3 !important;
}
div[style*="background-color: rgb(135, 135, 135)"] {
    background-color: #878787 !important;
}</style></svg>