<svg xmlns="http://www.w3.org/2000/svg" width="33" height="31" viewBox="0 0 33 31"><title>gold chest</title><g fill="none" fill-rule="nonzero"><path fill="#AA572A" d="M4 3h25v25H4z"/><path d="M1 0h5a1 1 0 0 1 1 1v30H1a1 1 0 0 1-1-1V1a1 1 0 0 1 1-1zM27 0h5a1 1 0 0 1 1 1v29a1 1 0 0 1-1 1h-6V1a1 1 0 0 1 1-1z" fill="#FFD300"/><path fill="#FFD300" d="M4 27h25v4H4zM4 14h25v6H4z"/><path d="M13 11h7a2 2 0 0 1 2 2v8a2 2 0 0 1-2 2h-7a2 2 0 0 1-2-2v-8a2 2 0 0 1 2-2z" fill="#FFD300"/><path d="M15 17.48h3l.638 2.247A1 1 0 0 1 17.676 21h-2.352a1 1 0 0 1-.962-1.273L15 17.48z" fill="#ED9F0E"/><path d="M16.5 13a2.5 2.5 0 1 1 0 5 2.5 2.5 0 1 1 0-5z" fill="#ED9F0E"/></g></svg>