<svg xmlns="http://www.w3.org/2000/svg" width="34" height="34" viewBox="0 0 34 34" fill="none"><path d="M2.65625 13.4717C2.65625 16.2267 4.05262 18.6627 6.19106 20.1401L15.3112 28.0973C16.3946 29.0426 18.0133 29.03 19.0819 28.0679L28.254 19.8104C30.1391 18.3144 31.3438 16.0307 31.3438 13.4717C31.3438 8.96552 27.6079 5.3125 22.9993 5.3125C20.6443 5.3125 18.5172 6.26635 17 7.80049C15.4828 6.26635 13.3557 5.3125 11.0008 5.3125C6.39223 5.3125 2.65625 8.96552 2.65625 13.4717Z" fill="#FF4B4B"/><path opacity="0.3" fill-rule="evenodd" clip-rule="evenodd" d="M10.6619 16.9888C12.5042 16.9888 13.9977 15.4513 13.9977 13.5546C13.9977 11.6579 12.5042 10.1204 10.6619 10.1204C8.81964 10.1204 7.32617 11.6579 7.32617 13.5546C7.32617 15.4513 8.81964 16.9888 10.6619 16.9888Z" fill="white"/><style xmlns="" class="darkreader darkreader--fallback">html, body, body :not(iframe) {
    background-color: #181a1b !important;
    border-color: #776e62 !important;
    color: #e8e6e3 !important;
}
div[style*="background-color: rgb(135, 135, 135)"] {
    background-color: #878787 !important;
}</style></svg>