<svg xmlns="http://www.w3.org/2000/svg" width="22" height="30" viewBox="0 0 22 30" fill="none"><path fill-rule="evenodd" clip-rule="evenodd" d="M14.0367 2.67272C13.8379 0.718003 11.3282 0.0455378 10.1787 1.63898L0.717665 14.7538C-0.157342 15.9667 0.452676 17.6801 1.89732 18.0672L7.2794 19.5093L8.07445 27.3273C8.27323 29.282 10.7829 29.9545 11.9324 28.361L21.3935 15.2462C22.2685 14.0333 21.6585 12.3199 20.2138 11.9328L14.8317 10.4907L14.0367 2.67272Z" fill="#FFD900"/><path d="M2.574 16.4882C2.08457 16.3561 2.03731 15.6803 2.50359 15.4813L6.24415 13.8853C6.58188 13.7412 6.96093 13.973 6.98654 14.3393L7.17226 16.9952C7.19787 17.3615 6.85477 17.6438 6.50027 17.5481L2.574 16.4882Z" fill="#F7C100"/><path d="M19.717 13.2505C20.2064 13.3826 20.2537 14.0584 19.7874 14.2573L16.0469 15.8533C15.7091 15.9974 15.3301 15.7656 15.3045 15.3993L15.1188 12.7435C15.0931 12.3772 15.4362 12.0949 15.7907 12.1906L19.717 13.2505Z" fill="#FFEF8F"/></svg>