<?xml version="1.0" encoding="utf-8"?>
<svg x="0" y="132" width="82px" height="66px" viewBox="0 0 82 66" version="1.1" xmlns="http://www.w3.org/2000/svg">
  <defs/>
  <title>fr</title>
  <g id="fr" stroke="none" fill="none" fill-rule="evenodd">
    <g id="Group" transform="translate(6.000000, 6.000000)" fill-rule="nonzero">
      <path d="M 58.505 0.492 C 56.613 -0.454 14.779 0.078 14.779 0.078 C 9.844 0.078 12.098 7.487 10.301 8.447 C 8.351 9.491 22.843 13.336 21.799 15.286 C 20.839 17.083 6.19 8.874 6.19 13.809 L 6.902 38.944 C 6.902 43.879 8.911 42.792 9.871 44.589 C 10.915 46.539 5.503 46.112 7.453 47.156 C 9.25 48.116 11.72 53.982 16.655 53.982 L 57.259 53.98 C 62.194 53.98 60.751 46.692 62.547 45.731 C 64.498 44.688 66.384 50.456 67.428 48.506 C 68.388 46.709 58.291 46.372 58.291 41.437 L 57.045 20.04 C 57.045 15.105 64.828 12.098 63.868 10.301 C 62.824 8.351 66.634 3.794 64.684 2.75 C 62.887 1.79 63.44 0.492 58.505 0.492 Z" id="Rectangle-3" fill="#EEEEEE"/>
      <path d="M23.625,0 L23.625,54 L12.5630375,54 C8.19459564,54 6.61049308,53.5451545 5.01345604,52.6910498 C3.41641901,51.836945 2.163055,50.583581 1.30895025,48.986544 C0.454845494,47.3895069 -5.32907052e-15,45.8054044 -5.32907052e-15,41.4369625 L-5.32907052e-15,12.5630375 C-5.32907052e-15,8.19459564 0.454845494,6.61049308 1.30895025,5.01345604 C2.163055,3.41641901 3.41641901,2.163055 5.01345604,1.30895025 C6.61049308,0.454845494 8.19459564,0 12.5630375,0 L23.625,0 Z" id="Path" fill="#1CB0F6"/>
      <path d="M46.375,-3.55271368e-15 L57.4369625,-3.55271368e-15 C61.8054044,-3.55271368e-15 63.3895069,0.454845494 64.986544,1.30895025 C66.583581,2.163055 67.836945,3.41641901 68.6910498,5.01345604 C69.5451545,6.61049308 70,8.19459564 70,12.5630375 L70,41.4369625 C70,45.8054044 69.5451545,47.3895069 68.6910498,48.986544 C67.836945,50.583581 66.583581,51.836945 64.986544,52.6910498 C63.3895069,53.5451545 61.8054044,54 57.4369625,54 L46.375,54 L46.375,-3.55271368e-15 Z" id="Path" fill="#FF4B4B"/>
    </g>
  </g>
</svg>